<svg width="263" height="226" viewBox="0 0 263 226" fill="none" xmlns="http://www.w3.org/2000/svg">
<path d="M28 86C19.5799 86 12.8817 86 8.48581 86C5.76212 86 3.82392 88.6411 4.63506 91.2412L44.2307 218.164C44.757 219.851 46.3188 221 48.0859 221H179.747C181.511 221 183.071 219.855 183.6 218.172L223.467 91.2487C224.284 88.647 222.341 86 219.614 86C213.056 86 205.97 86 198.5 86M28 86C31.1667 51.3334 55.5 5 104.5 5C156.126 5 187.167 43.6667 198.5 86M28 86C67.0877 86 143.281 86 198.5 86" stroke="#141414" stroke-width="8.07692"/>
<ellipse cx="77.9362" cy="132" rx="11.9362" ry="17" fill="#141414"/>
<ellipse cx="140.936" cy="132" rx="11.9362" ry="17" fill="#141414"/>
<path d="M97 159.5H120" stroke="black"/>
<ellipse cx="82" cy="139" rx="4" ry="6" fill="white"/>
<ellipse cx="137" cy="138" rx="4" ry="6" fill="white"/>
<circle cx="215.5" cy="101.5" r="45.5" fill="white" stroke="black" stroke-width="4" stroke-dasharray="15 15"/>
<path d="M208.431 98.902C208.431 95.788 208.989 93.349 210.105 91.585C211.239 89.821 213.111 88.939 215.721 88.939C218.331 88.939 220.194 89.821 221.31 91.585C222.444 93.349 223.011 95.788 223.011 98.902C223.011 102.034 222.444 104.491 221.31 106.273C220.194 108.055 218.331 108.946 215.721 108.946C213.111 108.946 211.239 108.055 210.105 106.273C208.989 104.491 208.431 102.034 208.431 98.902ZM219.285 98.902C219.285 97.57 219.195 96.454 219.015 95.554C218.853 94.636 218.511 93.889 217.989 93.313C217.485 92.737 216.729 92.449 215.721 92.449C214.713 92.449 213.948 92.737 213.426 93.313C212.922 93.889 212.58 94.636 212.4 95.554C212.238 96.454 212.157 97.57 212.157 98.902C212.157 100.27 212.238 101.422 212.4 102.358C212.562 103.276 212.904 104.023 213.426 104.599C213.948 105.157 214.713 105.436 215.721 105.436C216.729 105.436 217.494 105.157 218.016 104.599C218.538 104.023 218.88 103.276 219.042 102.358C219.204 101.422 219.285 100.27 219.285 98.902Z" fill="black"/>
<path d="M208.106 120.055C207.589 120.055 207.115 119.934 206.683 119.692C206.251 119.449 205.909 119.115 205.656 118.688C205.403 118.256 205.277 117.769 205.277 117.226C205.277 116.689 205.403 116.207 205.656 115.78C205.909 115.348 206.251 115.011 206.683 114.769C207.115 114.526 207.589 114.405 208.106 114.405C208.627 114.405 209.101 114.526 209.528 114.769C209.96 115.011 210.3 115.348 210.548 115.78C210.8 116.207 210.927 116.689 210.927 117.226C210.927 117.769 210.8 118.256 210.548 118.688C210.3 119.115 209.96 119.449 209.528 119.692C209.096 119.934 208.622 120.055 208.106 120.055ZM208.106 119.068C208.438 119.068 208.73 118.994 208.983 118.846C209.236 118.693 209.433 118.477 209.576 118.198C209.718 117.919 209.789 117.595 209.789 117.226C209.789 116.857 209.718 116.536 209.576 116.262C209.433 115.983 209.236 115.77 208.983 115.622C208.73 115.475 208.438 115.401 208.106 115.401C207.774 115.401 207.479 115.475 207.221 115.622C206.968 115.77 206.77 115.983 206.628 116.262C206.486 116.536 206.415 116.857 206.415 117.226C206.415 117.595 206.486 117.919 206.628 118.198C206.77 118.477 206.968 118.693 207.221 118.846C207.479 118.994 207.774 119.068 208.106 119.068ZM212.856 116.302C212.999 116.07 213.183 115.888 213.409 115.756C213.641 115.625 213.905 115.559 214.2 115.559V116.72H213.907C213.56 116.72 213.296 116.802 213.117 116.965C212.943 117.129 212.856 117.413 212.856 117.819V120H211.75V115.622H212.856V116.302ZM214.66 117.795C214.66 117.353 214.747 116.96 214.921 116.618C215.1 116.275 215.343 116.012 215.648 115.828C215.954 115.643 216.294 115.551 216.668 115.551C216.952 115.551 217.223 115.614 217.482 115.741C217.74 115.862 217.945 116.025 218.098 116.231V114.152H219.22V120H218.098V119.352C217.961 119.568 217.769 119.742 217.521 119.874C217.273 120.005 216.986 120.071 216.66 120.071C216.291 120.071 215.954 119.976 215.648 119.787C215.343 119.597 215.1 119.331 214.921 118.988C214.747 118.641 214.66 118.243 214.66 117.795ZM218.106 117.811C218.106 117.542 218.053 117.313 217.948 117.124C217.842 116.929 217.7 116.781 217.521 116.681C217.342 116.576 217.15 116.523 216.944 116.523C216.739 116.523 216.549 116.573 216.375 116.673C216.201 116.773 216.059 116.921 215.948 117.116C215.843 117.305 215.79 117.532 215.79 117.795C215.79 118.059 215.843 118.29 215.948 118.491C216.059 118.686 216.201 118.836 216.375 118.941C216.554 119.046 216.744 119.099 216.944 119.099C217.15 119.099 217.342 119.049 217.521 118.949C217.7 118.844 217.842 118.696 217.948 118.506C218.053 118.312 218.106 118.08 218.106 117.811ZM224.37 117.716C224.37 117.874 224.36 118.016 224.339 118.143H221.138C221.165 118.459 221.275 118.707 221.47 118.886C221.665 119.065 221.905 119.154 222.189 119.154C222.6 119.154 222.893 118.978 223.066 118.625H224.26C224.133 119.046 223.891 119.394 223.533 119.668C223.174 119.937 222.735 120.071 222.213 120.071C221.792 120.071 221.412 119.979 221.075 119.795C220.743 119.605 220.482 119.339 220.293 118.996C220.108 118.654 220.016 118.259 220.016 117.811C220.016 117.358 220.108 116.96 220.293 116.618C220.477 116.275 220.735 116.012 221.067 115.828C221.399 115.643 221.781 115.551 222.213 115.551C222.629 115.551 223.001 115.64 223.327 115.82C223.659 115.999 223.915 116.254 224.094 116.586C224.278 116.913 224.37 117.289 224.37 117.716ZM223.225 117.4C223.219 117.116 223.117 116.889 222.916 116.72C222.716 116.547 222.471 116.46 222.181 116.46C221.907 116.46 221.676 116.544 221.486 116.713C221.302 116.876 221.188 117.105 221.146 117.4H223.225ZM226.284 116.302C226.426 116.07 226.611 115.888 226.837 115.756C227.069 115.625 227.333 115.559 227.628 115.559V116.72H227.335C226.988 116.72 226.724 116.802 226.545 116.965C226.371 117.129 226.284 117.413 226.284 117.819V120H225.178V115.622H226.284V116.302Z" fill="black"/>
</svg>
