<svg width="44" height="44" viewBox="0 0 44 44" fill="none" xmlns="http://www.w3.org/2000/svg">
<path d="M22 37.125C22 37.125 4.8125 27.5 4.8125 15.8125C4.81285 13.7468 5.52862 11.745 6.83812 10.1474C8.14763 8.54976 9.97002 7.45499 11.9955 7.04919C14.0209 6.64339 16.1244 6.95161 17.9483 7.92145C19.7722 8.89128 21.2039 10.4629 22 12.369L22 12.369C22.7961 10.4629 24.2278 8.89129 26.0517 7.92145C27.8756 6.95162 29.9791 6.6434 32.0045 7.04919C34.03 7.45499 35.8524 8.54976 37.1619 10.1474C38.4714 11.745 39.1871 13.7468 39.1875 15.8125C39.1875 27.5 22 37.125 22 37.125Z" stroke="white" stroke-width="2.75" stroke-linecap="round" stroke-linejoin="round"/>
</svg>
