<svg width="43" height="43" viewBox="0 0 43 43" fill="none" xmlns="http://www.w3.org/2000/svg">
<path d="M21.5 22.8438C24.4685 22.8438 26.875 20.4373 26.875 17.4688C26.875 14.5002 24.4685 12.0938 21.5 12.0938C18.5315 12.0938 16.125 14.5002 16.125 17.4688C16.125 20.4373 18.5315 22.8438 21.5 22.8438Z" stroke="white" stroke-width="2.6875" stroke-linecap="round" stroke-linejoin="round"/>
<path d="M34.9375 17.4688C34.9375 29.5625 21.5 38.9688 21.5 38.9688C21.5 38.9688 8.0625 29.5625 8.0625 17.4688C8.0625 13.9049 9.47823 10.487 11.9983 7.967C14.5183 5.44698 17.9362 4.03125 21.5 4.03125C25.0638 4.03125 28.4817 5.44698 31.0017 7.967C33.5218 10.487 34.9375 13.9049 34.9375 17.4688V17.4688Z" stroke="white" stroke-width="2.6875" stroke-linecap="round" stroke-linejoin="round"/>
</svg>
