<svg width="48" height="48" viewBox="0 0 48 48" fill="none" xmlns="http://www.w3.org/2000/svg">
<path d="M42 33.2479V14.7524C42 14.4863 41.9292 14.2249 41.7948 13.9952C41.6604 13.7654 41.4674 13.5756 41.2354 13.4451L24.7354 4.16383C24.5109 4.03753 24.2576 3.97119 24 3.97119C23.7424 3.97119 23.4891 4.03753 23.2646 4.16383L6.76461 13.4451C6.53263 13.5756 6.33955 13.7654 6.20519 13.9952C6.07082 14.2249 6 14.4863 6 14.7524V33.2479C6 33.5141 6.07082 33.7754 6.20519 34.0052C6.33955 34.2349 6.53263 34.4248 6.76461 34.5553L23.2646 43.8365C23.4891 43.9628 23.7424 44.0291 24 44.0291C24.2576 44.0291 24.5109 43.9628 24.7354 43.8365L41.2354 34.5553C41.4674 34.4248 41.6604 34.2349 41.7948 34.0052C41.9292 33.7754 42 33.5141 42 33.2479Z" stroke="white" stroke-width="3" stroke-linecap="round" stroke-linejoin="round"/>
<path d="M33.1916 28.5958V18.8458L15 8.8125" stroke="white" stroke-width="3" stroke-linecap="round" stroke-linejoin="round"/>
<path d="M41.7934 13.9926L24.1782 24L6.20801 13.9907" stroke="white" stroke-width="3" stroke-linecap="round" stroke-linejoin="round"/>
<path d="M24.1775 24L24.0015 44.029" stroke="white" stroke-width="3" stroke-linecap="round" stroke-linejoin="round"/>
</svg>
