<svg width="44" height="44" viewBox="0 0 44 44" fill="none" xmlns="http://www.w3.org/2000/svg">
<path d="M16.5 9.625V34.375" stroke="white" stroke-width="2.75" stroke-linecap="round" stroke-linejoin="round"/>
<path d="M4.125 28.7358C4.12494 28.4191 4.23441 28.112 4.43487 27.8667C4.63532 27.6214 4.91442 27.453 5.22486 27.39C6.46707 27.1362 7.58349 26.4611 8.38528 25.479C9.18707 24.4968 9.625 23.2679 9.625 22C9.625 20.7321 9.18707 19.5032 8.38528 18.521C7.58349 17.5389 6.46707 16.8638 5.22486 16.61C4.91442 16.547 4.63532 16.3786 4.43487 16.1333C4.23441 15.888 4.12494 15.5809 4.125 15.2642V11C4.125 10.6353 4.26987 10.2856 4.52773 10.0277C4.78559 9.76987 5.13533 9.625 5.5 9.625H38.5C38.8647 9.625 39.2144 9.76987 39.4723 10.0277C39.7301 10.2856 39.875 10.6353 39.875 11V15.2642C39.8751 15.5809 39.7656 15.888 39.5651 16.1333C39.3647 16.3786 39.0856 16.547 38.7751 16.61C37.5329 16.8638 36.4165 17.5389 35.6147 18.521C34.8129 19.5032 34.375 20.7321 34.375 22C34.375 23.2679 34.8129 24.4968 35.6147 25.479C36.4165 26.4612 37.5329 27.1362 38.7751 27.39C39.0856 27.453 39.3647 27.6215 39.5651 27.8667C39.7656 28.112 39.8751 28.4191 39.875 28.7358V33C39.875 33.3647 39.7301 33.7144 39.4723 33.9723C39.2144 34.2301 38.8647 34.375 38.5 34.375H5.5C5.13533 34.375 4.78559 34.2301 4.52773 33.9723C4.26987 33.7144 4.125 33.3647 4.125 33V28.7358Z" stroke="white" stroke-width="2.75" stroke-linecap="round" stroke-linejoin="round"/>
</svg>
